<svg xmlns="http://www.w3.org/2000/svg" xmlns:xlink="http://www.w3.org/1999/xlink" version="1.1" x="0px" y="0px" viewBox="0 0 100 100" enable-background="new 0 0 100 100" xml:space="preserve"><g><path fill="#000000" d="M9.755,18.966l6.034-6.033V75c0,1.454,1.179,2.632,2.632,2.632s2.632-1.178,2.632-2.632V12.933l6.034,6.033   c0.514,0.514,1.188,0.771,1.86,0.771c0.674,0,1.347-0.257,1.86-0.771c1.028-1.027,1.028-2.693,0-3.722L20.281,4.719   c-1.027-1.028-2.692-1.028-3.721,0L6.034,15.244c-1.028,1.028-1.028,2.694,0,3.722S8.728,19.993,9.755,18.966z"></path><path fill="#000000" d="M41.334,18.966l6.034-6.033V75c0,1.454,1.179,2.632,2.632,2.632s2.632-1.178,2.632-2.632V12.933   l6.034,6.033c0.514,0.514,1.187,0.771,1.86,0.771c0.673,0,1.347-0.257,1.86-0.771c1.028-1.027,1.028-2.693,0-3.722L51.86,4.719   c-1.027-1.028-2.693-1.028-3.721,0L37.613,15.244c-1.028,1.028-1.028,2.694,0,3.722C38.641,19.993,40.307,19.993,41.334,18.966z"></path><path fill="#000000" d="M72.913,18.966l6.034-6.033V75c0,1.454,1.179,2.632,2.632,2.632s2.632-1.178,2.632-2.632V12.933   l6.034,6.033c0.514,0.514,1.187,0.771,1.86,0.771c0.673,0,1.347-0.257,1.86-0.771c1.028-1.027,1.028-2.693,0-3.722L83.439,4.719   c-1.028-1.028-2.693-1.028-3.721,0L69.192,15.244c-1.028,1.028-1.028,2.694,0,3.722C70.22,19.993,71.886,19.993,72.913,18.966z"></path><path fill="#000000" d="M97.368,90.789H2.632C1.179,90.789,0,91.969,0,93.421c0,1.455,1.179,2.632,2.632,2.632h94.736   c1.453,0,2.632-1.177,2.632-2.632C100,91.969,98.821,90.789,97.368,90.789z"></path></g></svg>